<mxfile host="app.diagrams.net" modified="2024-03-19T17:13:50.377Z" agent="Mozilla/5.0 (Windows NT 10.0; Win64; x64) AppleWebKit/537.36 (KHTML, like Gecko) Chrome/122.0.0.0 Safari/537.36" version="24.0.7" etag="Wi_IjfuJrNesnUxKs318" type="github">
  <diagram name="PÃ¡gina-1" id="uYpUU7jOchTTn-S_IOJZ">
    <mxGraphModel>
      <root>
        <mxCell id="0" />
        <mxCell id="1" parent="0" />
      </root>
    </mxGraphModel>
  </diagram>
</mxfile>
